<?xml version="1.0" encoding="iso-8859-1"?>
<!-- Uploaded to: SVG Repo, www.svgrepo.com, Generator: SVG Repo Mixer Tools -->
<svg height="800px" width="800px" version="1.1" id="Layer_1" xmlns="http://www.w3.org/2000/svg" xmlns:xlink="http://www.w3.org/1999/xlink" 
	 viewBox="0 0 504.446 504.446" xml:space="preserve">
<g transform="translate(0 1)">
	<g>
		<path style="fill:#FFA800;" d="M285.377,108.534c0,1.679,0,2.518,0,4.197C285.377,111.892,285.377,110.213,285.377,108.534"/>
		<path style="fill:#FFA800;" d="M472.551,91.748C460.8,87.551,455.764,74.121,460.8,63.21c8.393-16.787-8.393-34.413-25.18-28.538
			c10.072,4.197,15.948,16.787,10.911,28.538c-5.036,10.911,0,24.341,10.911,28.538c16.787,6.715,16.787,32.734,0,39.449
			c-10.911,4.197-15.948,17.626-10.911,28.538c5.036,12.59-0.839,25.18-10.911,28.538c16.787,5.875,33.574-11.751,25.18-28.538
			c-5.036-10.911,0-24.341,11.751-28.538C491.856,124.482,491.856,98.462,472.551,91.748"/>
	</g>
	<path style="fill:#FFFFFF;" d="M33.574,461.059V142.108c0-18.466,12.59-33.574,28.538-33.574H41.128
		c-18.466,0-32.734,15.108-32.734,33.574v318.951c0,18.466,14.269,33.574,32.734,33.574h20.984
		C46.164,494.633,33.574,479.525,33.574,461.059"/>
	<path style="fill:#FFE100;" d="M369.311,108.534H237.534V91.748h-73.023v16.787h-102.4c-15.948,0-28.538,15.108-28.538,33.574
		v318.951c0,18.466,12.59,33.574,28.538,33.574h277.823c15.948,0,29.377-15.108,29.377-33.574V209.256V108.534z"/>
	<path style="fill:#FFA800;" d="M369.311,108.534v352.525c0,18.466-13.43,33.574-29.377,33.574h20.984
		c18.466,0,33.574-15.108,33.574-33.574V108.534"/>
	<path style="fill:#FFE100;" d="M394.492,108.534v352.525c0,18.466-13.43,33.574-29.377,33.574h20.984
		c18.466,0,33.574-15.108,33.574-33.574V108.534"/>
	<path d="M360.918,503.026H41.128C18.466,503.026,0,484.561,0,461.059V234.436c0-5.036,3.357-8.393,8.393-8.393
		s8.393,3.357,8.393,8.393v226.623c0,14.269,10.911,25.18,24.341,25.18h319.79c14.269,0,25.18-10.911,25.18-25.18V116.928H243.41
		c-5.036,0-8.393-3.357-8.393-8.393v-8.393h-67.148v8.393c0,5.036-3.357,8.393-8.393,8.393H41.128
		c-13.43,0-24.341,10.911-24.341,25.18v25.18c0,5.036-3.357,8.393-8.393,8.393S0,172.325,0,167.289v-25.18
		c0-23.502,18.466-41.967,41.128-41.967h109.954v-8.393c0-5.036,3.357-8.393,8.393-8.393h83.934c5.036,0,8.393,3.357,8.393,8.393
		v8.393h142.689c5.036,0,8.393,3.357,8.393,8.393v352.525C402.885,484.561,384.42,503.026,360.918,503.026z"/>
	<path style="fill:#FDCC00;" d="M419.672,22.082L419.672,22.082c4.197,11.751-0.839,16.787,9.233,11.751
		c15.948-8.393,33.574,10.072,25.18,27.698c-5.036,10.911,0,24.341,10.911,28.538l0,0c16.787,6.715,16.787,32.734,0,39.449l0,0
		c-10.911,4.197-15.948,17.626-10.911,28.538c7.554,17.626-9.233,36.092-25.18,27.698c-10.072-5.036-5.875,0-9.233,11.751
		c-5.875,15.108-46.164,15.108-52.879,0c-4.197-11.751-15.948-16.787-26.02-11.751c-15.948,8.393-33.574-10.072-25.18-27.698
		c5.036-10.911,0-24.341-10.911-28.538c-14.269-7.554-14.269-33.574,0-39.449c10.911-4.197,15.948-17.626,10.911-28.538
		c-7.554-17.626,9.233-36.092,25.18-27.698c10.072,5.036,22.662,0,26.02-11.751C372.669,2.777,413.797,2.777,419.672,22.082"/>
	<path style="fill:#FFE100;" d="M411.279,108.534c0-18.466-10.911-33.574-25.18-33.574s-25.18,15.108-25.18,33.574
		s10.911,33.574,25.18,33.574S411.279,127,411.279,108.534"/>
	<path style="fill:#FFA800;" d="M394.492,74.961c-1.679,0-3.357,0-5.036,0.839c12.59,1.679,21.823,15.948,21.823,32.734
		s-9.233,31.056-21.823,32.734c1.679,0,3.357,0.839,5.036,0.839c18.466,0,33.574-15.108,33.574-33.574
		S412.957,74.961,394.492,74.961"/>
	<polygon style="fill:#3DB9F9;" points="151.082,461.059 176.262,461.059 176.262,360.338 151.082,360.338 	"/>
	<polygon style="fill:#63D3FD;" points="58.754,461.059 151.082,461.059 151.082,360.338 58.754,360.338 	"/>
	<path style="fill:#FDCC00;" d="M205.639,184.075l-4.197-8.393l-29.377,23.502c-5.036,4.197-12.59,0.839-12.59-5.875V91.748h58.754
		v92.328C218.229,190.79,210.675,188.272,205.639,184.075"/>
	<path style="fill:#FFA800;" d="M218.229,91.748v92.328c0,1.679-0.839,3.357-0.839,4.197l14.269,10.911
		c5.036,4.197,12.59,0.839,12.59-5.875V91.748H218.229z"/>
	<path d="M16.787,200.862c0-5.036-3.357-8.393-8.393-8.393S0,195.826,0,200.862s3.357,8.393,8.393,8.393
		S16.787,205.898,16.787,200.862"/>
	<path d="M235.856,209.256c-3.357,0-6.715-0.839-10.072-3.357l-24.341-19.305l-24.341,19.305
		c-5.036,4.197-11.751,4.197-16.787,1.679c-5.875-2.518-9.233-8.393-9.233-14.269V91.748c0-5.036,3.357-8.393,8.393-8.393h83.934
		c5.036,0,8.393,3.357,8.393,8.393v101.561c0,5.875-3.357,11.751-9.233,14.269C240.892,209.256,238.374,209.256,235.856,209.256z
		 M236.695,192.469L236.695,192.469L236.695,192.469z M167.869,100.141v91.489l28.538-22.662c3.357-2.518,7.554-2.518,10.072,0
		l28.538,22.662v-91.489H167.869z"/>
	<path d="M176.262,469.452H58.754c-5.036,0-8.393-3.357-8.393-8.393V360.338c0-5.036,3.357-8.393,8.393-8.393h117.508
		c5.036,0,8.393,3.357,8.393,8.393v100.721C184.656,466.095,181.298,469.452,176.262,469.452z M67.148,452.666h100.721v-83.934
		H67.148V452.666z"/>
	<path d="M142.689,402.305H92.328c-5.036,0-8.393-3.357-8.393-8.393c0-5.036,3.357-8.393,8.393-8.393h50.361
		c5.036,0,8.393,3.357,8.393,8.393C151.082,398.948,147.725,402.305,142.689,402.305z"/>
	<path d="M125.902,435.879H92.328c-5.036,0-8.393-3.357-8.393-8.393s3.357-8.393,8.393-8.393h33.574
		c5.036,0,8.393,3.357,8.393,8.393S130.938,435.879,125.902,435.879z"/>
	<path d="M393.652,217.649c-12.59,0-22.662-5.875-27.698-15.948c-1.679-4.197-4.197-6.715-7.554-8.393s-6.715-1.679-10.072,0
		c-11.751,5.036-24.341,3.357-33.574-5.875c-9.233-9.233-10.911-21.823-5.875-33.574c1.679-3.357,1.679-6.715,0-10.072
		c-1.679-3.357-4.197-5.875-7.554-6.715c-10.911-5.036-17.626-16.787-16.787-29.377c0.839-11.751,6.715-21.823,16.787-26.02
		c3.357-1.679,5.875-3.357,7.554-6.715c1.679-3.357,1.679-6.715,0-10.072c-5.036-11.751-3.357-24.341,5.875-33.574
		c9.233-9.233,21.823-10.911,33.574-5.875c3.357,1.679,6.715,1.679,10.072,0c3.357-1.679,5.875-4.197,6.715-7.554
		C370.151,6.974,381.062-0.58,393.652-0.58l0,0c12.59,0,23.502,7.554,27.698,19.305l0,0c0.839,3.357,3.357,5.875,6.715,7.554
		c3.357,1.679,6.715,1.679,10.072,0c11.751-5.036,24.341-3.357,33.574,5.875c9.233,9.233,10.911,21.823,5.875,33.574
		c-1.679,3.357-1.679,6.715,0,10.072c1.679,3.357,4.197,5.875,7.554,6.715c11.751,4.197,19.305,15.108,19.305,27.698
		s-7.554,23.502-19.305,27.698c-3.357,0.839-5.875,3.357-7.554,6.715c-1.679,3.357-1.679,6.715,0,10.072
		c5.036,11.751,3.357,24.341-5.875,33.574c-9.233,9.233-21.823,10.911-33.574,5.875c-3.357-1.679-6.715-1.679-10.072,0
		s-5.875,4.197-6.715,7.554C416.315,210.934,406.243,217.649,393.652,217.649L393.652,217.649z M354.203,175.682
		c4.197,0,7.554,0.839,10.911,2.518c7.554,3.357,13.429,9.233,16.787,17.626c1.679,4.197,7.554,5.875,11.751,5.875l0,0
		c4.197,0,9.233-1.679,11.751-6.715c2.518-7.554,8.393-13.43,15.948-16.787s15.948-2.518,23.502,0.839
		c5.875,2.518,10.911,0.839,14.269-2.518c3.357-3.357,5.036-8.393,2.518-14.269c-3.357-7.554-4.197-15.948-0.839-23.502
		c3.357-7.554,9.233-13.43,17.626-16.787c5.875-2.518,8.393-7.554,8.393-11.751c0-4.197-2.518-9.233-8.393-11.751
		c-7.554-2.518-14.269-8.393-17.626-16.787c-2.518-7.554-2.518-16.787,0.839-23.502c2.518-5.875,0.839-10.911-2.518-14.269
		c-3.357-3.357-8.393-5.036-14.269-2.518c-7.554,3.357-15.948,3.357-23.502,0.839c-7.554-2.518-13.43-9.233-16.787-17.626
		c-2.518-5.875-7.554-8.393-11.751-8.393s-9.233,2.518-11.751,8.393c-2.518,7.554-8.393,14.269-16.787,17.626
		c-7.554,3.357-15.948,3.357-23.502-0.839c-5.036-3.357-10.911-0.839-13.43,2.518c-3.357,3.357-5.036,8.393-2.518,14.269
		c3.357,7.554,3.357,15.948,0.839,23.502c-3.357,7.554-9.233,13.43-17.626,16.787c-4.197,0.839-5.875,5.875-5.875,10.072
		c0,4.197,1.679,10.911,6.715,13.43c6.715,2.518,13.43,8.393,16.787,15.948c3.357,7.554,3.357,15.948-0.839,23.502
		c-2.518,5.875-0.839,11.751,2.518,14.269c3.357,3.357,8.393,5.036,14.269,2.518C344.97,176.521,350.007,175.682,354.203,175.682z"
		/>
	<path d="M394.492,150.502c-23.502,0-41.967-18.466-41.967-41.967s18.466-41.967,41.967-41.967
		c23.502,0,41.967,18.466,41.967,41.967S417.993,150.502,394.492,150.502z M394.492,83.354c-14.269,0-25.18,10.911-25.18,25.18
		s10.911,25.18,25.18,25.18s25.18-10.911,25.18-25.18S408.761,83.354,394.492,83.354z"/>
</g>
</svg>